<svg width="46" height="46" viewBox="0 0 46 46" fill="none" xmlns="http://www.w3.org/2000/svg">
<circle cx="23" cy="23" r="22" fill="#03DAC6" stroke="white" stroke-width="2"/>
<path d="M8.05571 14.688H37.9443C39.472 14.688 40.715 15.9309 40.715 17.4587V29.0955C40.715 29.4015 40.4668 29.6496 40.1608 29.6496H5.83919C5.5332 29.6496 5.28505 29.4015 5.28505 29.0955V17.4587C5.28505 15.9309 6.528 14.688 8.05571 14.688Z" fill="#F26B6B"/>
<path d="M39.6067 29.0955V17.4587C39.6067 15.9309 38.3637 14.688 36.836 14.688H37.9443C39.472 14.688 40.715 15.9309 40.715 17.4587V29.0955C40.715 29.4015 40.4668 29.6496 40.1608 29.6496H39.0525C39.3586 29.6496 39.6067 29.4015 39.6067 29.0955Z" fill="#E26161"/>
<path d="M36.9134 16.3273H40.4725C40.6278 16.6731 40.715 17.0557 40.715 17.4587V20.2293H36.2819V16.9588C36.2819 16.61 36.5646 16.3273 36.9134 16.3273Z" fill="#9BE8E8"/>
<path d="M36.8024 16.3273H40.4725C40.6278 16.6731 40.715 17.0557 40.715 17.4587V20.2293H38.6831L36.2819 17.8281V16.8478C36.2819 16.5603 36.5149 16.3273 36.8024 16.3273Z" fill="#79D1D1"/>
<path d="M39.3642 16.3273H40.4725C40.6278 16.6731 40.715 17.0557 40.715 17.4587V20.2293H39.6067V17.4587C39.6067 17.0557 39.5195 16.6731 39.3642 16.3273Z" fill="#73BFBF"/>
<path d="M11.4233 16.3273H14.5934C14.9422 16.3273 15.2249 16.6101 15.2249 16.9588V20.2294H10.7918V16.9588C10.7918 16.61 11.0745 16.3273 11.4233 16.3273Z" fill="#9BE8E8"/>
<path d="M11.3123 16.3273H14.7044C14.9918 16.3273 15.2249 16.5603 15.2249 16.8479V20.2294H13.4701L10.7917 17.551V16.8478C10.7918 16.5603 11.0248 16.3273 11.3123 16.3273Z" fill="#79D1D1"/>
<path d="M31.372 16.3273H34.5421C34.8909 16.3273 35.1736 16.6101 35.1736 16.9588V20.2294H30.7405V16.9588C30.7405 16.61 31.0233 16.3273 31.372 16.3273Z" fill="#9BE8E8"/>
<path d="M31.2611 16.3273H34.653C34.9405 16.3273 35.1736 16.5603 35.1736 16.8479V20.2294H33.0956L30.7405 17.8744V16.8479C30.7405 16.5603 30.9736 16.3273 31.2611 16.3273Z" fill="#79D1D1"/>
<path d="M25.8307 16.3273H29.0009C29.3496 16.3273 29.6324 16.6101 29.6324 16.9588V20.2294H25.1993V16.9588C25.1992 16.61 25.482 16.3273 25.8307 16.3273Z" fill="#9BE8E8"/>
<path d="M25.7197 16.3273H29.1118C29.3993 16.3273 29.6323 16.5603 29.6323 16.8479V20.2294H27.5081L25.1991 17.9204V16.8479C25.1992 16.5603 25.4322 16.3273 25.7197 16.3273Z" fill="#79D1D1"/>
<path d="M9.68348 16.3275H10.7918V29.6496H9.68348V16.3275Z" fill="#F26B6B"/>
<path d="M5.28505 17.4587C5.28505 17.0557 5.37217 16.6731 5.52752 16.3273H9.05204C9.4008 16.3273 9.68355 16.6101 9.68355 16.9588V20.2524H5.28512V17.4587H5.28505V17.4587Z" fill="#9BE8E8"/>
<path d="M5.28505 17.4587C5.28505 17.0557 5.37217 16.6731 5.52752 16.3273H9.16296C9.45042 16.3273 9.68348 16.5603 9.68348 16.8479V20.2524H7.53623L5.28505 18.0013V17.4587Z" fill="#79D1D1"/>
<path d="M23.8139 29.6496V16.9045C23.8139 16.7517 23.6896 16.6275 23.5368 16.6275H16.8872C16.7344 16.6275 16.6101 16.7517 16.6101 16.9045V29.6496H23.8139Z" fill="#9BE8E8"/>
<path d="M19.427 29.6496H16.6102V26.8327L19.427 29.6496Z" fill="#79D1D1"/>
<path d="M23.8139 24.9857V29.6496H21.6897L16.6102 24.5701V17.7819L23.8139 24.9857Z" fill="#79D1D1"/>
<path d="M23.5368 16.6275C23.6896 16.6275 23.8139 16.7517 23.8139 16.9045V21.9379L18.5034 16.6275H23.5368V16.6275Z" fill="#79D1D1"/>
<path d="M11.3459 24.6624C13.1792 24.6624 14.6707 26.1539 14.6707 27.9872C14.6707 29.8205 13.1792 31.312 11.3459 31.312C9.51262 31.312 8.02111 29.8205 8.02111 27.9872C8.02111 26.1539 9.51262 24.6624 11.3459 24.6624Z" fill="#645BA5"/>
<path d="M11.3459 25.7707C12.5681 25.7707 13.5624 26.765 13.5624 27.9872C13.5624 29.2094 12.5681 30.2037 11.3459 30.2037C10.1237 30.2037 9.1294 29.2094 9.1294 27.9872C9.1294 26.765 10.1237 25.7707 11.3459 25.7707Z" fill="#494170"/>
<path d="M11.3459 26.3248C12.2626 26.3248 13.0083 27.0706 13.0083 27.9872C13.0083 28.9038 12.2625 29.6495 11.3459 29.6495C10.4293 29.6495 9.68355 28.9038 9.68355 27.9872C9.68355 27.0706 10.4292 26.3248 11.3459 26.3248Z" fill="#EDECF1"/>
<path d="M34.6195 24.6624C36.4528 24.6624 37.9443 26.1539 37.9443 27.9872C37.9443 29.8205 36.4528 31.312 34.6195 31.312C32.7862 31.312 31.2947 29.8205 31.2947 27.9872C31.2947 26.1539 32.7862 24.6624 34.6195 24.6624Z" fill="#645BA5"/>
<path d="M34.6195 25.7707C35.8417 25.7707 36.836 26.765 36.836 27.9872C36.836 29.2094 35.8417 30.2037 34.6195 30.2037C33.3973 30.2037 32.403 29.2094 32.403 27.9872C32.403 26.765 33.3973 25.7707 34.6195 25.7707Z" fill="#494170"/>
<path d="M34.6195 26.3248C35.5362 26.3248 36.2819 27.0706 36.2819 27.9872C36.2819 28.9038 35.5361 29.6495 34.6195 29.6495C33.7029 29.6495 32.9571 28.9038 32.9571 27.9872C32.9571 27.0706 33.7028 26.3248 34.6195 26.3248Z" fill="#EDECF1"/>
<path d="M24.0909 20.2293H40.715V24.6624H24.0909V20.2293Z" fill="#EDBC53"/>
<path d="M39.6067 20.2293H40.715V24.6624H39.6067V20.2293Z" fill="#F09C48"/>
<path d="M5.28505 20.2293H16.3331V24.6624H5.28505V20.2293Z" fill="#EDBC53"/>
<path d="M16.8872 16.3504H23.5368C23.8428 16.3504 24.091 16.5985 24.091 16.9045V29.6496H23.5368V17.2624C23.5368 17.0648 23.3766 16.9045 23.1789 16.9045H21.124C20.9264 16.9045 20.7661 17.0647 20.7661 17.2624V29.6496H19.6578V17.2624C19.6578 17.0648 19.4976 16.9045 19.2999 16.9045H17.245C17.0474 16.9045 16.8871 17.0647 16.8871 17.2624V29.6496H16.3329V16.9045C16.3331 16.5985 16.5812 16.3504 16.8872 16.3504Z" fill="#D65151"/>
<path d="M18.5496 23.5541H18.6189C18.9249 23.5541 19.173 23.3061 19.173 23C19.173 22.694 18.9249 22.4459 18.6189 22.4459H18.5496C18.2436 22.4459 17.9955 22.694 17.9955 23C17.9955 23.306 18.2436 23.5541 18.5496 23.5541Z" fill="#D65151"/>
<path d="M21.8051 23.5541H21.8744C22.1804 23.5541 22.4286 23.3061 22.4286 23C22.4286 22.694 22.1804 22.4459 21.8744 22.4459H21.8051C21.4991 22.4459 21.251 22.694 21.251 23C21.251 23.306 21.4991 23.5541 21.8051 23.5541Z" fill="#D65151"/>
</svg>
