<svg width="26" height="35" viewBox="0 0 26 35" fill="none" xmlns="http://www.w3.org/2000/svg">
<mask id="path-1-outside-1" maskUnits="userSpaceOnUse" x="0.5" y="0" width="26" height="35" fill="black">
<rect fill="white" x="0.5" width="26" height="35"/>
<path d="M13 2C7.195 2 2.5 6.695 2.5 12.5C2.5 20.375 13 32 13 32C13 32 23.5 20.375 23.5 12.5C23.5 6.695 18.805 2 13 2ZM13 16.25C10.93 16.25 9.25 14.57 9.25 12.5C9.25 10.43 10.93 8.75 13 8.75C15.07 8.75 16.75 10.43 16.75 12.5C16.75 14.57 15.07 16.25 13 16.25Z"/>
</mask>
<path d="M13 2C7.195 2 2.5 6.695 2.5 12.5C2.5 20.375 13 32 13 32C13 32 23.5 20.375 23.5 12.5C23.5 6.695 18.805 2 13 2ZM13 16.25C10.93 16.25 9.25 14.57 9.25 12.5C9.25 10.43 10.93 8.75 13 8.75C15.07 8.75 16.75 10.43 16.75 12.5C16.75 14.57 15.07 16.25 13 16.25Z" fill="#FF9800"/>
<path d="M13 32L11.5158 33.3406L13 34.9838L14.4842 33.3406L13 32ZM13 0C6.09043 0 0.5 5.59043 0.5 12.5H4.5C4.5 7.79957 8.29957 4 13 4V0ZM0.5 12.5C0.5 14.8734 1.27971 17.375 2.31542 19.6868C3.36287 22.0249 4.74181 24.3204 6.09207 26.3217C7.44617 28.3287 8.79631 30.0762 9.80646 31.3209C10.3124 31.9443 10.7353 32.4442 11.0336 32.7905C11.1828 32.9637 11.301 33.0987 11.3831 33.1915C11.4241 33.238 11.4561 33.274 11.4785 33.2989C11.4896 33.3114 11.4984 33.3212 11.5046 33.3282C11.5077 33.3316 11.5102 33.3344 11.5121 33.3365C11.513 33.3375 11.5138 33.3384 11.5144 33.3391C11.5147 33.3394 11.5151 33.3398 11.5152 33.3399C11.5155 33.3403 11.5158 33.3406 13 32C14.4842 30.6594 14.4844 30.6596 14.4845 30.6598C14.4845 30.6598 14.4846 30.6599 14.4846 30.6599C14.4846 30.6598 14.4844 30.6596 14.4841 30.6593C14.4834 30.6585 14.4821 30.6571 14.4802 30.6549C14.4763 30.6507 14.47 30.6436 14.4613 30.6339C14.4439 30.6144 14.4169 30.5841 14.3811 30.5435C14.3093 30.4623 14.2019 30.3397 14.064 30.1797C13.7882 29.8595 13.3907 29.3897 12.9123 28.8002C11.9537 27.6191 10.6788 25.9682 9.40793 24.0845C8.13319 22.1952 6.88713 20.1079 5.96583 18.0514C5.03279 15.9688 4.5 14.0641 4.5 12.5H0.5ZM13 32C14.4842 33.3406 14.4845 33.3403 14.4848 33.3399C14.4849 33.3398 14.4853 33.3394 14.4856 33.3391C14.4862 33.3384 14.487 33.3375 14.4879 33.3365C14.4898 33.3344 14.4923 33.3316 14.4954 33.3282C14.5016 33.3212 14.5104 33.3114 14.5215 33.2989C14.5439 33.274 14.5759 33.238 14.6169 33.1915C14.699 33.0987 14.8172 32.9637 14.9664 32.7905C15.2647 32.4442 15.6876 31.9443 16.1935 31.3209C17.2037 30.0762 18.5538 28.3287 19.9079 26.3217C21.2582 24.3204 22.6371 22.0249 23.6846 19.6868C24.7203 17.375 25.5 14.8734 25.5 12.5H21.5C21.5 14.0641 20.9672 15.9688 20.0342 18.0514C19.1129 20.1079 17.8668 22.1952 16.5921 24.0845C15.3212 25.9682 14.0463 27.6191 13.0877 28.8002C12.6093 29.3897 12.2118 29.8595 11.936 30.1797C11.7981 30.3397 11.6907 30.4623 11.6189 30.5435C11.5831 30.5841 11.5561 30.6144 11.5387 30.6339C11.53 30.6436 11.5237 30.6507 11.5198 30.6549C11.5179 30.6571 11.5166 30.6585 11.5159 30.6593C11.5156 30.6596 11.5154 30.6598 11.5154 30.6599C11.5154 30.6599 11.5155 30.6598 11.5155 30.6598C11.5156 30.6596 11.5158 30.6594 13 32ZM25.5 12.5C25.5 5.59043 19.9096 0 13 0V4C17.7004 4 21.5 7.79957 21.5 12.5H25.5ZM13 14.25C12.0346 14.25 11.25 13.4654 11.25 12.5H7.25C7.25 15.6746 9.82543 18.25 13 18.25V14.25ZM11.25 12.5C11.25 11.5346 12.0346 10.75 13 10.75V6.75C9.82543 6.75 7.25 9.32543 7.25 12.5H11.25ZM13 10.75C13.9654 10.75 14.75 11.5346 14.75 12.5H18.75C18.75 9.32543 16.1746 6.75 13 6.75V10.75ZM14.75 12.5C14.75 13.4654 13.9654 14.25 13 14.25V18.25C16.1746 18.25 18.75 15.6746 18.75 12.5H14.75Z" fill="white" mask="url(#path-1-outside-1)"/>
</svg>
