<svg width="54" height="54" viewBox="0 0 54 54" fill="none" xmlns="http://www.w3.org/2000/svg">
<circle cx="27" cy="27" r="24" fill="white" stroke="#03DAC6" stroke-width="4"/>
<path d="M41.9443 18.688H12.0557C10.528 18.688 9.28505 19.9309 9.28505 21.4587V33.0955C9.28505 33.4015 9.5332 33.6496 9.8392 33.6496H44.1608C44.4668 33.6496 44.715 33.4015 44.715 33.0955V21.4587C44.715 19.9309 43.472 18.688 41.9443 18.688Z" fill="#F26B6B"/>
<path d="M10.3933 33.0955V21.4587C10.3933 19.9309 11.6363 18.688 13.164 18.688H12.0557C10.528 18.688 9.28505 19.9309 9.28505 21.4587V33.0955C9.28505 33.4015 9.5332 33.6496 9.8392 33.6496H10.9475C10.6414 33.6496 10.3933 33.4015 10.3933 33.0955Z" fill="#E26161"/>
<path d="M13.0866 20.3273H9.52752C9.37217 20.6731 9.28505 21.0557 9.28505 21.4587V24.2293H13.7181V20.9588C13.7181 20.61 13.4354 20.3273 13.0866 20.3273Z" fill="#9BE8E8"/>
<path d="M13.1976 20.3273H9.52752C9.37217 20.6731 9.28505 21.0557 9.28505 21.4587V24.2293H11.3169L13.7181 21.8281V20.8478C13.7181 20.5603 13.4851 20.3273 13.1976 20.3273Z" fill="#79D1D1"/>
<path d="M10.6358 20.3273H9.52752C9.37217 20.6731 9.28505 21.0557 9.28505 21.4587V24.2293H10.3933V21.4587C10.3933 21.0557 10.4805 20.6731 10.6358 20.3273Z" fill="#73BFBF"/>
<path d="M38.5767 20.3273H35.4066C35.0578 20.3273 34.7751 20.6101 34.7751 20.9588V24.2294H39.2082V20.9588C39.2082 20.61 38.9255 20.3273 38.5767 20.3273Z" fill="#9BE8E8"/>
<path d="M38.6877 20.3273H35.2956C35.0082 20.3273 34.7751 20.5603 34.7751 20.8479V24.2294H36.5299L39.2083 21.551V20.8478C39.2082 20.5603 38.9752 20.3273 38.6877 20.3273Z" fill="#79D1D1"/>
<path d="M18.628 20.3273H15.4579C15.1091 20.3273 14.8264 20.6101 14.8264 20.9588V24.2294H19.2595V20.9588C19.2595 20.61 18.9767 20.3273 18.628 20.3273Z" fill="#9BE8E8"/>
<path d="M18.7389 20.3273H15.347C15.0595 20.3273 14.8264 20.5603 14.8264 20.8479V24.2294H16.9044L19.2595 21.8744V20.8479C19.2595 20.5603 19.0264 20.3273 18.7389 20.3273Z" fill="#79D1D1"/>
<path d="M24.1693 20.3273H20.9991C20.6504 20.3273 20.3676 20.6101 20.3676 20.9588V24.2294H24.8007V20.9588C24.8008 20.61 24.518 20.3273 24.1693 20.3273Z" fill="#9BE8E8"/>
<path d="M24.2803 20.3273H20.8882C20.6007 20.3273 20.3677 20.5603 20.3677 20.8479V24.2294H22.4919L24.8009 21.9204V20.8479C24.8008 20.5603 24.5678 20.3273 24.2803 20.3273Z" fill="#79D1D1"/>
<path d="M40.3165 20.3275H39.2082V33.6496H40.3165V20.3275Z" fill="#F26B6B"/>
<path d="M44.7149 21.4587C44.7149 21.0557 44.6278 20.6731 44.4725 20.3273H40.948C40.5992 20.3273 40.3165 20.6101 40.3165 20.9588V24.2524H44.7149V21.4587H44.7149V21.4587Z" fill="#9BE8E8"/>
<path d="M44.7149 21.4587C44.7149 21.0557 44.6278 20.6731 44.4725 20.3273H40.837C40.5496 20.3273 40.3165 20.5603 40.3165 20.8479V24.2524H42.4638L44.7149 22.0013V21.4587Z" fill="#79D1D1"/>
<path d="M26.1861 33.6496V20.9045C26.1861 20.7517 26.3104 20.6275 26.4632 20.6275H33.1128C33.2656 20.6275 33.3899 20.7517 33.3899 20.9045V33.6496H26.1861Z" fill="#9BE8E8"/>
<path d="M30.573 33.6496H33.3898V30.8327L30.573 33.6496Z" fill="#79D1D1"/>
<path d="M26.1861 28.9857V33.6496H28.3103L33.3898 28.5701V21.7819L26.1861 28.9857Z" fill="#79D1D1"/>
<path d="M26.4632 20.6275C26.3104 20.6275 26.1861 20.7517 26.1861 20.9045V25.9379L31.4966 20.6275H26.4632V20.6275Z" fill="#79D1D1"/>
<path d="M38.6541 28.6624C36.8208 28.6624 35.3293 30.1539 35.3293 31.9872C35.3293 33.8205 36.8208 35.312 38.6541 35.312C40.4874 35.312 41.9789 33.8205 41.9789 31.9872C41.9789 30.1539 40.4874 28.6624 38.6541 28.6624Z" fill="#645BA5"/>
<path d="M38.6541 29.7707C37.4319 29.7707 36.4376 30.765 36.4376 31.9872C36.4376 33.2094 37.4319 34.2037 38.6541 34.2037C39.8763 34.2037 40.8706 33.2094 40.8706 31.9872C40.8706 30.765 39.8763 29.7707 38.6541 29.7707Z" fill="#494170"/>
<path d="M38.6541 30.3248C37.7374 30.3248 36.9917 31.0706 36.9917 31.9872C36.9917 32.9038 37.7375 33.6495 38.6541 33.6495C39.5707 33.6495 40.3165 32.9038 40.3165 31.9872C40.3165 31.0706 39.5708 30.3248 38.6541 30.3248Z" fill="#EDECF1"/>
<path d="M15.3805 28.6624C13.5472 28.6624 12.0557 30.1539 12.0557 31.9872C12.0557 33.8205 13.5472 35.312 15.3805 35.312C17.2138 35.312 18.7053 33.8205 18.7053 31.9872C18.7053 30.1539 17.2138 28.6624 15.3805 28.6624Z" fill="#645BA5"/>
<path d="M15.3805 29.7707C14.1583 29.7707 13.164 30.765 13.164 31.9872C13.164 33.2094 14.1583 34.2037 15.3805 34.2037C16.6027 34.2037 17.597 33.2094 17.597 31.9872C17.597 30.765 16.6027 29.7707 15.3805 29.7707Z" fill="#494170"/>
<path d="M15.3805 30.3248C14.4638 30.3248 13.7181 31.0706 13.7181 31.9872C13.7181 32.9038 14.4639 33.6495 15.3805 33.6495C16.2971 33.6495 17.0429 32.9038 17.0429 31.9872C17.0429 31.0706 16.2972 30.3248 15.3805 30.3248Z" fill="#EDECF1"/>
<path d="M25.9091 24.2293H9.28505V28.6624H25.9091V24.2293Z" fill="#EDBC53"/>
<path d="M10.3933 24.2293H9.28505V28.6624H10.3933V24.2293Z" fill="#F09C48"/>
<path d="M44.7149 24.2293H33.6669V28.6624H44.7149V24.2293Z" fill="#EDBC53"/>
<path d="M33.1128 20.3504H26.4632C26.1572 20.3504 25.909 20.5985 25.909 20.9045V33.6496H26.4632V21.2624C26.4632 21.0648 26.6234 20.9045 26.8211 20.9045H28.876C29.0736 20.9045 29.2339 21.0647 29.2339 21.2624V33.6496H30.3422V21.2624C30.3422 21.0648 30.5024 20.9045 30.7001 20.9045H32.755C32.9526 20.9045 33.1129 21.0647 33.1129 21.2624V33.6496H33.6671V20.9045C33.6669 20.5985 33.4188 20.3504 33.1128 20.3504Z" fill="#D65151"/>
<path d="M31.4504 27.5541H31.3811C31.0751 27.5541 30.827 27.3061 30.827 27C30.827 26.694 31.0751 26.4459 31.3811 26.4459H31.4504C31.7564 26.4459 32.0045 26.694 32.0045 27C32.0045 27.306 31.7564 27.5541 31.4504 27.5541Z" fill="#D65151"/>
<path d="M28.1949 27.5541H28.1256C27.8196 27.5541 27.5714 27.3061 27.5714 27C27.5714 26.694 27.8196 26.4459 28.1256 26.4459H28.1949C28.5009 26.4459 28.749 26.694 28.749 27C28.749 27.306 28.5009 27.5541 28.1949 27.5541Z" fill="#D65151"/>
</svg>
