<svg width="27" height="26" viewBox="0 0 27 26" fill="none" xmlns="http://www.w3.org/2000/svg">
<path fill-rule="evenodd" clip-rule="evenodd" d="M21 13C21 17.1421 17.6421 20.5 13.5 20.5C9.35786 20.5 6 17.1421 6 13C6 8.85786 9.35786 5.5 13.5 5.5C17.6421 5.5 21 8.85786 21 13ZM13.5 19C16.8137 19 19.5 16.3137 19.5 13C19.5 9.68629 16.8137 7 13.5 7C10.1863 7 7.5 9.68629 7.5 13C7.5 16.3137 10.1863 19 13.5 19Z" fill="white"/>
<path d="M13.5 23C19.0228 23 23.5 18.5228 23.5 13C23.5 7.47715 19.0228 3 13.5 3C7.97715 3 3.5 7.47715 3.5 13C3.5 18.5228 7.97715 23 13.5 23ZM17 13C17 14.933 15.433 16.5 13.5 16.5C11.567 16.5 10 14.933 10 13C10 11.067 11.567 9.5 13.5 9.5C15.433 9.5 17 11.067 17 13Z" stroke="#4688F1" stroke-opacity="0.2" stroke-width="5"/>
<path d="M19.5 13C19.5 16.3137 16.8137 19 13.5 19C10.1863 19 7.5 16.3137 7.5 13C7.5 9.68629 10.1863 7 13.5 7C16.8137 7 19.5 9.68629 19.5 13Z" fill="#4688F1"/>
</svg>
